<?xml version="1.0" standalone="no"?>
<!DOCTYPE svg PUBLIC "-//W3C//DTD SVG 20010904//EN"
 "http://www.w3.org/TR/2001/REC-SVG-20010904/DTD/svg10.dtd">
<svg version="1.0" xmlns="http://www.w3.org/2000/svg"
 width="128.000000pt" height="128.000000pt" viewBox="0 0 128.000000 128.000000"
 preserveAspectRatio="xMidYMid meet">

<g transform="translate(0.000000,128.000000) scale(0.100000,-0.100000)"
fill="#FFFFFF" stroke="none">
<path d="M655 1126 c-67 -67 -27 -176 65 -176 33 0 48 6 71 29 64 65 20 171
-71 171 -30 0 -47 -6 -65 -24z"/>
<path d="M455 916 c-120 -40 -115 -34 -139 -156 -27 -130 -27 -137 -11 -154
24 -23 62 -20 79 7 8 12 22 59 31 104 16 76 20 83 48 93 17 5 32 8 35 6 2 -3
-6 -51 -18 -107 -28 -130 -23 -155 38 -207 l48 -40 33 -158 c32 -160 43 -184
82 -184 20 0 49 26 49 43 0 7 -16 93 -36 192 l-36 181 36 179 c20 99 36 183
36 187 0 13 -103 38 -154 38 -28 -1 -82 -11 -121 -24z"/>
<path d="M742 785 c-26 -130 -20 -161 31 -152 18 3 72 17 120 32 88 26 113 47
101 80 -12 30 -37 33 -102 13 -35 -11 -66 -17 -69 -14 -3 3 -10 29 -14 58 -5
28 -17 60 -27 71 -18 18 -19 16 -40 -88z"/>
<path d="M436 503 c-2 -10 -19 -91 -37 -181 -25 -121 -30 -168 -23 -180 14
-21 67 -28 81 -10 6 7 25 80 42 162 l32 150 -38 38 c-42 43 -49 46 -57 21z"/>
</g>
</svg>
